<svg width="132" height="132" viewBox="0 0 132 132" fill="none" xmlns="http://www.w3.org/2000/svg">
<g clip-path="url(#clip0_2_3222)">
<path d="M114.4 54.9996C109.172 54.9996 104.666 58.6775 103.62 63.7995H76.7796C76.2829 61.3801 74.98 59.2008 73.0839 57.6179L80.52 44.0003H88.2203C89.349 49.5329 94.4852 53.3117 100.104 52.7437C105.722 52.1765 109.997 47.4465 109.997 41.7996C109.997 36.153 105.722 31.4226 100.104 30.856C94.4852 30.2877 89.349 34.0675 88.2201 39.6005H81.4001V29.5236C81.0366 29.3705 80.654 29.2575 80.2854 29.1137C80.1887 29.0476 80.0866 28.9897 79.9804 28.9404C79.4867 28.753 78.9793 28.6151 78.4799 28.448C78.1001 28.3212 77.7245 28.1902 77.3396 28.0742C76.5079 27.8246 75.6638 27.616 74.8169 27.4227C74.425 27.3332 74.0383 27.2314 73.6428 27.1538C72.7495 26.9795 71.8459 26.8537 70.9386 26.741C70.5761 26.6956 70.2196 26.6291 69.8532 26.5941C68.5791 26.4721 67.295 26.3994 66 26.3994C56.8768 26.3933 48.034 29.5526 40.98 35.3383C40.9318 35.3777 40.8785 35.411 40.83 35.4512C40.103 36.0504 39.4223 36.7008 38.7404 37.3505C38.5038 37.5751 38.2459 37.7785 38.0152 38.0092C37.5318 38.4937 37.0927 39.0204 36.6333 39.5288C36.2427 39.9619 35.8289 40.3729 35.4562 40.823C35.2014 41.1311 34.9818 41.4696 34.7361 41.7857C34.2034 42.4725 33.6615 43.1521 33.1743 43.8745C33.1289 43.94 33.0936 44.0134 33.0484 44.0799C31.6696 46.1377 30.4874 48.3206 29.5174 50.5998C29.4904 50.6632 29.4731 50.7305 29.446 50.7931C27.4353 55.6106 26.3999 60.7791 26.3999 65.9994C26.3999 71.2197 27.4353 76.3882 29.446 81.2057C29.4721 81.2694 29.4904 81.3367 29.5174 81.3991C30.4874 83.6784 31.6693 85.8616 33.0474 87.9199C33.0915 87.9854 33.1278 88.0592 33.1732 88.1254C33.6605 88.8465 34.2024 89.5274 34.7351 90.2142C34.981 90.5303 35.2004 90.8678 35.4551 91.1758C35.8279 91.627 36.2417 92.038 36.6326 92.4711C37.0917 92.9795 37.5297 93.5062 38.0144 93.9906C38.2449 94.2214 38.5027 94.4238 38.7394 94.6493C39.4211 95.299 40.103 95.9487 40.829 96.5487C40.8774 96.5889 40.9308 96.6221 40.979 96.6616C48.0334 102.447 56.8765 105.606 66 105.6C67.295 105.6 68.5791 105.528 69.853 105.406C70.2196 105.371 70.5761 105.304 70.9386 105.259C71.8461 105.146 72.7495 105.02 73.6428 104.846C74.0386 104.768 74.4253 104.667 74.8169 104.577C75.6638 104.384 76.5079 104.175 77.3396 103.925C77.7235 103.81 78.1001 103.679 78.4796 103.552C78.9783 103.385 79.4867 103.247 79.9801 103.059C80.0858 103.01 80.1889 102.952 80.2854 102.886C80.654 102.742 81.0366 102.63 81.4001 102.475V92.3994H88.2203C89.349 97.9323 94.4852 101.712 100.104 101.144C105.722 100.577 109.997 95.8469 109.997 90.2C109.997 84.5534 105.722 79.8231 100.104 79.2561C94.4852 78.6882 89.349 82.4667 88.2203 87.9996H80.52L73.0839 74.3819C74.9801 72.7992 76.2831 70.6198 76.7799 68.2004H103.62C104.778 73.8712 110.132 77.675 115.87 76.9015C121.606 76.1271 125.76 71.0394 125.373 65.2639C124.986 59.4881 120.189 55.0017 114.4 54.9996ZM99 35.2004C102.645 35.2004 105.6 38.1552 105.6 41.7999C105.6 45.4453 102.645 48.4001 99 48.4001C95.3553 48.4001 92.3995 45.4456 92.3995 41.7999C92.4105 38.1593 95.3591 35.2104 99 35.2004ZM99 83.5995C102.645 83.5995 105.6 86.5546 105.6 90.2C105.6 93.8447 102.645 96.7995 99 96.7995C95.3553 96.7995 92.3995 93.8447 92.3995 90.2C92.4105 86.5597 95.3591 83.6106 99 83.5995ZM49.5443 45.8919C46.5536 47.841 44.0843 50.4914 42.3513 53.6123C40.6183 56.7333 39.674 60.2304 39.6005 63.7995C39.6036 64.0904 39.5491 64.3791 39.4399 64.6488C39.3308 64.9184 39.1692 65.1638 38.9646 65.3706C38.76 65.5775 38.5164 65.7417 38.2479 65.8537C37.9794 65.9658 37.6914 66.0235 37.4004 66.0235C37.1095 66.0235 36.8215 65.9658 36.553 65.8537C36.2845 65.7417 36.0409 65.5775 35.8363 65.3706C35.6317 65.1638 35.4701 64.9184 35.361 64.6488C35.2518 64.3791 35.1973 64.0904 35.2004 63.7995C35.2826 59.4711 36.427 55.2293 38.533 51.4469C40.6391 47.6646 43.6423 44.4577 47.2784 42.1082C47.7801 41.8077 48.3807 41.7189 48.948 41.8612C49.5152 42.0035 50.0027 42.3653 50.3032 42.8671C50.6037 43.3688 50.6925 43.9694 50.5502 44.5366C50.4079 45.1039 50.0461 45.5914 49.5443 45.8919ZM69.1682 71.7858C68.2004 72.3267 67.1087 72.6074 66 72.6005C62.3553 72.6005 59.3995 69.6449 59.3995 66.0002C59.3995 62.3555 62.3553 59.3997 66 59.3997C67.1088 59.3927 68.2005 59.6734 69.1685 60.2144C70.2071 60.782 71.0738 61.6187 71.6776 62.6367C72.2813 63.6547 72.5999 64.8165 72.5999 66.0001C72.5999 67.1837 72.2813 68.3454 71.6776 69.3634C71.0738 70.3815 70.2071 71.2182 69.1685 71.7858H69.1682ZM114.4 72.6005C110.755 72.6005 107.8 69.6449 107.8 66.0002C107.8 62.3555 110.754 59.3997 114.4 59.3997C118.045 59.3997 121 62.3555 121 66.0002C120.99 69.6408 118.041 72.5896 114.4 72.6007V72.6005Z" fill="#DFDACA"/>
<path d="M110 105.601C104.773 105.599 100.266 109.278 99.2197 114.4V114.401L88.9182 114.406L86.0792 111.567C86.065 111.552 86.057 111.533 86.0418 111.518L86.0197 111.496L81.642 107.14C65.1521 113.408 46.513 109.223 34.286 96.5075C22.0592 83.7911 18.6068 65.0028 25.5165 48.7709C32.4251 32.5398 48.3589 22.0028 66 21.9997C71.3468 21.9915 76.6493 22.9686 81.642 24.882L86.0418 20.4819C86.057 20.467 86.065 20.4476 86.0792 20.4327L88.902 17.5998H99.2197C100.349 23.1325 105.485 26.912 111.103 26.3443C116.722 25.7771 120.998 21.047 120.998 15.4002C120.998 9.75253 116.722 5.02322 111.103 4.45526C105.485 3.88833 100.35 7.66683 99.2197 13.1997H88.902C87.7413 13.2028 86.6287 13.6639 85.8062 14.4829L83.9391 16.35L83.9301 16.3458C82.3796 15.7801 80.8006 15.2954 79.1997 14.8938V4.39983C79.1928 1.97278 77.227 0.00696094 74.7999 0H57.2001C54.773 0.00696094 52.8072 1.97278 52.8003 4.39983V14.8938C48.0144 16.1084 43.4282 18.0053 39.1826 20.5263L31.8117 13.1343C30.9867 12.2935 29.8601 11.8181 28.6816 11.8143C27.5032 11.8104 26.3734 12.2773 25.5415 13.1121L13.1343 25.5209C12.718 25.9292 12.387 26.4161 12.1604 26.9534C11.9338 27.4907 11.8161 28.0676 11.8143 28.6507C11.8122 29.2339 11.9259 29.8118 12.1486 30.3508C12.3714 30.8898 12.6989 31.3793 13.1121 31.7909L20.5263 39.1826C18.0053 43.4281 16.1084 48.0142 14.8938 52.8H4.39983C1.97278 52.8075 0.00696094 54.7733 0 57.2003V74.8002C0.00696094 77.2272 1.97278 79.193 4.39983 79.2H14.8938C16.1084 83.9859 18.0053 88.5721 20.5263 92.8177L13.1343 100.189C12.2935 101.014 11.8181 102.14 11.8143 103.319C11.8104 104.497 12.2773 105.627 13.1121 106.459L25.5206 118.866C25.9289 119.282 26.4159 119.613 26.9532 119.84C27.4904 120.066 28.0673 120.184 28.6504 120.186C29.2337 120.188 29.8115 120.074 30.3505 119.852C30.8895 119.629 31.379 119.301 31.7906 118.888L39.1823 111.474C43.4279 113.995 48.0141 115.892 52.8 117.106V127.6C52.8072 130.027 54.773 131.993 57.2001 132H74.7999C77.227 131.993 79.1928 130.027 79.1997 127.6V117.106C80.8006 116.705 82.3796 116.22 83.9301 115.654L83.9401 115.65L85.8041 117.515C86.627 118.335 87.7403 118.797 88.902 118.8H99.2197C100.378 124.471 105.732 128.276 111.47 127.501C117.206 126.727 121.36 121.639 120.973 115.864C120.586 110.088 115.788 105.602 110 105.601ZM110 8.79966C113.645 8.79966 116.6 11.7547 116.6 15.4002C116.6 19.0449 113.645 21.9997 110 21.9997C106.355 21.9997 103.4 19.0451 103.4 15.4002C103.411 11.7599 106.36 8.81074 110 8.79966ZM110 123.2C106.355 123.2 103.4 120.246 103.4 116.6C103.4 112.955 106.355 110 110 110C113.645 110 116.6 112.955 116.6 116.6C116.59 120.24 113.641 123.189 110 123.2Z" fill="#DFDACA"/>
</g>
<defs>
<clipPath id="clip0_2_3222">
<rect width="132" height="132" fill="white"/>
</clipPath>
</defs>
</svg>
