<svg width="204" height="33" viewBox="0 0 204 33" fill="none" xmlns="http://www.w3.org/2000/svg">
<circle opacity="0.05" cx="16.4805" cy="16.0815" r="16.0815" fill="white"/>
<circle opacity="0.05" cx="59.2871" cy="16.0815" r="16.0815" fill="white"/>
<circle opacity="0.05" cx="102.091" cy="16.0815" r="16.0815" fill="white"/>
<circle opacity="0.05" cx="144.897" cy="16.0815" r="16.0815" fill="white"/>
<circle opacity="0.05" cx="187.704" cy="16.0815" r="16.0815" fill="white"/>
<path d="M16.4792 9.09937C18.7383 9.09937 19.0464 9.09937 19.9706 9.09937C20.7921 9.09937 21.2028 9.30475 21.5109 9.40743C21.9216 9.61281 22.2297 9.71549 22.5377 10.0236C22.8458 10.3316 23.0512 10.6397 23.1538 11.0504C23.2565 11.3585 23.3592 11.7692 23.4619 12.5907C23.4619 13.5149 23.4619 13.7203 23.4619 16.082C23.4619 18.4438 23.4619 18.6492 23.4619 19.5734C23.4619 20.3948 23.2565 20.8056 23.1538 21.1137C22.9485 21.5244 22.8458 21.8325 22.5377 22.1405C22.2297 22.4486 21.9216 22.6539 21.5109 22.7566C21.2028 22.8593 20.7921 22.962 19.9706 23.0647C19.0464 23.0647 18.841 23.0647 16.4792 23.0647C14.1175 23.0647 13.9121 23.0647 12.9879 23.0647C12.1664 23.0647 11.7557 22.8593 11.4476 22.7566C11.0369 22.5513 10.7288 22.4486 10.4208 22.1405C10.1127 21.8325 9.90734 21.5244 9.80465 21.1137C9.70196 20.8056 9.59928 20.3948 9.49659 19.5734C9.49659 18.6492 9.49659 18.4438 9.49659 16.082C9.49659 13.7203 9.49659 13.5149 9.49659 12.5907C9.49659 11.7692 9.70196 11.3585 9.80465 11.0504C10.01 10.6397 10.1127 10.3316 10.4208 10.0236C10.7288 9.71549 11.0369 9.51012 11.4476 9.40743C11.7557 9.30475 12.1664 9.20206 12.9879 9.09937C13.9121 9.09937 14.2202 9.09937 16.4792 9.09937ZM16.4792 7.55908C14.1175 7.55908 13.9121 7.55908 12.9879 7.55908C12.0637 7.55908 11.4476 7.76445 10.9342 7.96983C10.4208 8.1752 9.90734 8.48326 9.39391 8.99669C8.88047 9.51012 8.6751 9.92086 8.36704 10.537C8.16167 11.0504 8.05898 11.6665 7.9563 12.5907C7.9563 13.5149 7.9563 13.8229 7.9563 16.082C7.9563 18.4438 7.9563 18.6492 7.9563 19.5734C7.9563 20.4975 8.16167 21.1137 8.36704 21.6271C8.57242 22.1405 8.88047 22.6539 9.39391 23.1674C9.90734 23.6808 10.3181 23.8862 10.9342 24.1942C11.4476 24.3996 12.0637 24.5023 12.9879 24.605C13.9121 24.605 14.2202 24.605 16.4792 24.605C18.7383 24.605 19.0464 24.605 19.9706 24.605C20.8948 24.605 21.5109 24.3996 22.0243 24.1942C22.5377 23.9889 23.0512 23.6808 23.5646 23.1674C24.078 22.6539 24.2834 22.2432 24.5915 21.6271C24.7968 21.1137 24.8995 20.4975 25.0022 19.5734C25.0022 18.6492 25.0022 18.3411 25.0022 16.082C25.0022 13.8229 25.0022 13.5149 25.0022 12.5907C25.0022 11.6665 24.7968 11.0504 24.5915 10.537C24.3861 10.0236 24.078 9.51012 23.5646 8.99669C23.0512 8.48326 22.6404 8.27789 22.0243 7.96983C21.5109 7.76445 20.8948 7.66177 19.9706 7.55908C19.0464 7.55908 18.841 7.55908 16.4792 7.55908Z" fill="white"/>
<path d="M16.4792 11.6665C14.0148 11.6665 12.0637 13.6176 12.0637 16.082C12.0637 18.5465 14.0148 20.4975 16.4792 20.4975C18.9437 20.4975 20.8948 18.5465 20.8948 16.082C20.8948 13.6176 18.9437 11.6665 16.4792 11.6665ZM16.4792 18.9572C14.939 18.9572 13.604 17.725 13.604 16.082C13.604 14.5417 14.8363 13.2068 16.4792 13.2068C18.0195 13.2068 19.3545 14.4391 19.3545 16.082C19.3545 17.6223 18.0195 18.9572 16.4792 18.9572Z" fill="white"/>
<path d="M20.9974 12.5907C21.5646 12.5907 22.0243 12.131 22.0243 11.5638C22.0243 10.9967 21.5646 10.537 20.9974 10.537C20.4303 10.537 19.9706 10.9967 19.9706 11.5638C19.9706 12.131 20.4303 12.5907 20.9974 12.5907Z" fill="white"/>
<path d="M67.8096 16.0823C67.8096 11.3953 63.9749 7.56055 59.2879 7.56055C54.601 7.56055 50.7662 11.3953 50.7662 16.0823C50.7662 20.3431 53.8554 23.8583 57.9032 24.4974V18.5322H55.7727V16.0823H57.9032V14.1649C57.9032 12.0344 59.1814 10.8627 61.0988 10.8627C62.0575 10.8627 63.0162 11.0758 63.0162 11.0758V13.2062H61.951C60.8858 13.2062 60.5662 13.8453 60.5662 14.4844V16.0823H62.9097L62.4836 18.5322H60.4597V24.604C64.7205 23.9648 67.8096 20.3431 67.8096 16.0823Z" fill="white"/>
<path d="M110.187 11.9281C109.974 11.1824 109.441 10.6498 108.696 10.4368C107.417 10.1172 101.985 10.1172 101.985 10.1172C101.985 10.1172 96.6588 10.1172 95.274 10.4368C94.5284 10.6498 93.9958 11.1824 93.7827 11.9281C93.5697 13.3128 93.5697 16.0824 93.5697 16.0824C93.5697 16.0824 93.5697 18.8519 93.8893 20.2367C94.1023 20.9824 94.6349 21.515 95.3806 21.728C96.6588 22.0476 102.091 22.0476 102.091 22.0476C102.091 22.0476 107.417 22.0476 108.802 21.728C109.548 21.515 110.081 20.9824 110.294 20.2367C110.613 18.8519 110.613 16.0824 110.613 16.0824C110.613 16.0824 110.613 13.3128 110.187 11.9281ZM100.387 18.6389V13.5259L104.861 16.0824L100.387 18.6389Z" fill="white"/>
<path d="M153.42 10.7585C152.781 11.078 152.141 11.1845 151.396 11.2911C152.141 10.865 152.674 10.2259 152.887 9.37369C152.248 9.79977 151.502 10.0128 150.65 10.2259C150.011 9.58673 149.052 9.16064 148.094 9.16064C145.857 9.16064 144.152 11.2911 144.685 13.4215C141.809 13.315 139.252 11.9302 137.442 9.79977C136.483 11.3976 137.015 13.4215 138.507 14.4867C137.974 14.4867 137.442 14.2737 136.909 14.0606C136.909 15.6584 138.081 17.1497 139.679 17.5758C139.146 17.6824 138.613 17.7889 138.081 17.6824C138.507 19.0671 139.785 20.1323 141.383 20.1323C140.105 21.091 138.187 21.6236 136.376 21.4106C137.974 22.3693 139.785 23.0084 141.702 23.0084C148.2 23.0084 151.822 17.5758 151.609 12.5693C152.355 12.1432 152.994 11.5041 153.42 10.7585Z" fill="white"/>
<path d="M187.705 7.55908C182.998 7.55908 179.183 11.3739 179.183 16.0808C179.183 19.6925 181.43 22.775 184.599 24.0166C184.526 23.3409 184.456 22.309 184.629 21.5733C184.785 20.9075 185.628 17.3391 185.628 17.3391C185.628 17.3391 185.371 16.8298 185.371 16.0741C185.371 14.8891 186.057 14.0036 186.913 14.0036C187.638 14.0036 187.991 14.5495 187.991 15.2053C187.991 15.9376 187.525 17.0295 187.285 18.0414C187.086 18.8903 187.711 19.5827 188.547 19.5827C190.062 19.5827 191.227 17.9849 191.227 15.6813C191.227 13.6408 189.762 12.2127 187.668 12.2127C185.245 12.2127 183.82 14.0303 183.82 15.911C183.82 16.6434 184.103 17.4289 184.456 17.855C184.526 17.9383 184.536 18.0148 184.516 18.098C184.453 18.3677 184.306 18.9469 184.279 19.0634C184.243 19.2198 184.156 19.2531 183.993 19.1766C182.928 18.6806 182.262 17.126 182.262 15.8744C182.262 13.1847 184.216 10.7181 187.891 10.7181C190.847 10.7181 193.144 12.8252 193.144 15.6414C193.144 18.5774 191.293 20.9408 188.723 20.9408C187.861 20.9408 187.049 20.4914 186.769 19.9622C186.769 19.9622 186.343 21.5899 186.24 21.9894C186.047 22.7284 185.528 23.6571 185.182 24.223C185.98 24.4693 186.826 24.6025 187.705 24.6025C192.412 24.6025 196.227 20.7877 196.227 16.0808C196.227 11.3739 192.412 7.55908 187.705 7.55908Z" fill="white"/>
</svg>
