<svg width="20" height="25" viewBox="0 0 20 25" fill="none" xmlns="http://www.w3.org/2000/svg">
<path d="M17.0336 12.5811C16.9492 12.495 16.8485 12.4265 16.7374 12.3796C16.6262 12.3327 16.5069 12.3084 16.3862 12.3081C16.2656 12.3078 16.1461 12.3315 16.0347 12.3778C15.9233 12.4241 15.8223 12.4921 15.7374 12.5778C15.6526 12.6635 15.5857 12.7653 15.5406 12.8771C15.4956 12.9889 15.4732 13.1086 15.4749 13.2291C15.4766 13.3496 15.5022 13.4686 15.5504 13.5792C15.5986 13.6897 15.6683 13.7895 15.7554 13.8729C16.5267 14.6312 17.1386 15.5359 17.5553 16.5338C17.9719 17.5316 18.1849 18.6026 18.1818 19.6838C18.1818 20.7948 14.9945 22.409 10 22.409C5.00548 22.409 1.81822 20.7939 1.81822 19.682C1.81512 18.6082 2.02524 17.5443 2.43643 16.5522C2.84761 15.56 3.45168 14.6592 4.21366 13.9019C4.30049 13.8181 4.36974 13.7179 4.41739 13.6071C4.46503 13.4962 4.49011 13.377 4.49116 13.2564C4.49221 13.1358 4.46921 13.0162 4.4235 12.9046C4.37779 12.7929 4.31029 12.6915 4.22493 12.6062C4.13957 12.5209 4.03807 12.4535 3.92635 12.4078C3.81462 12.3621 3.69492 12.3391 3.57421 12.3402C3.4535 12.3412 3.33421 12.3663 3.2233 12.4139C3.11238 12.4615 3.01207 12.5307 2.92821 12.6175C1.99672 13.5433 1.25829 14.6446 0.755663 15.8575C0.253038 17.0705 -0.00379283 18.371 4.23257e-05 19.6838C4.23257e-05 22.6343 5.15184 24.2258 10 24.2258C14.8482 24.2258 20 22.6343 20 19.6838C20.004 18.3622 19.7437 17.053 19.2342 15.8333C18.7248 14.6136 17.9766 13.5079 17.0336 12.5811Z" fill="#FF7600"/>
<path d="M10.0001 13.3249C11.2587 13.3249 12.489 12.952 13.5355 12.2533C14.582 11.5546 15.3976 10.5615 15.8793 9.39956C16.3609 8.23765 16.487 6.95912 16.2414 5.72564C15.9959 4.49217 15.3898 3.35914 14.4998 2.46986C13.6099 1.58057 12.476 0.97496 11.2416 0.729606C10.0071 0.484253 8.72763 0.610177 7.56484 1.09146C6.40204 1.57273 5.40818 2.38775 4.70894 3.43344C4.00969 4.47913 3.63647 5.70853 3.63647 6.96617C3.6384 8.65203 4.30947 10.2683 5.50246 11.4604C6.69545 12.6524 8.31294 13.323 10.0001 13.3249ZM10.0001 2.42421C10.8991 2.42421 11.7779 2.69059 12.5254 3.18967C13.2729 3.68875 13.8555 4.3981 14.1995 5.22804C14.5436 6.05797 14.6336 6.97121 14.4582 7.85226C14.2828 8.73332 13.8499 9.54262 13.2142 10.1778C12.5785 10.813 11.7686 11.2456 10.8869 11.4209C10.0051 11.5961 9.09119 11.5062 8.26062 11.1624C7.43005 10.8186 6.72015 10.2365 6.22069 9.48955C5.72123 8.74263 5.45465 7.86449 5.45465 6.96617C5.45609 5.76201 5.93545 4.60758 6.78757 3.75611C7.63969 2.90464 8.795 2.42565 10.0001 2.42421Z" fill="#FF7600"/>
</svg>
