<svg width="206" height="33" viewBox="0 0 206 33" fill="none" xmlns="http://www.w3.org/2000/svg">
<ellipse opacity="0.05" cx="16.2712" cy="16.0815" rx="16.2321" ry="16.0815" fill="white"/>
<ellipse opacity="0.05" cx="59.4789" cy="16.0815" rx="16.2321" ry="16.0815" fill="white"/>
<ellipse opacity="0.05" cx="102.683" cy="16.0815" rx="16.2321" ry="16.0815" fill="white"/>
<ellipse opacity="0.05" cx="145.891" cy="16.0815" rx="16.2321" ry="16.0815" fill="white"/>
<ellipse opacity="0.05" cx="189.098" cy="16.0815" rx="16.2321" ry="16.0815" fill="white"/>
<path d="M16.2699 9.09889C18.5502 9.09889 18.8611 9.09889 19.7939 9.09889C20.6231 9.09889 21.0377 9.30426 21.3487 9.40694C21.7632 9.61232 22.0742 9.715 22.3851 10.0231C22.6961 10.3311 22.9034 10.6392 23.007 11.0499C23.1107 11.358 23.2143 11.7687 23.318 12.5902C23.318 13.5144 23.318 13.7198 23.318 16.0815C23.318 18.4433 23.318 18.6487 23.318 19.5729C23.318 20.3944 23.1107 20.8051 23.007 21.1132C22.7997 21.5239 22.6961 21.832 22.3851 22.14C22.0742 22.4481 21.7632 22.6535 21.3487 22.7561C21.0377 22.8588 20.6231 22.9615 19.7939 23.0642C18.8611 23.0642 18.6538 23.0642 16.2699 23.0642C13.886 23.0642 13.6787 23.0642 12.7459 23.0642C11.9167 23.0642 11.5021 22.8588 11.1912 22.7561C10.7766 22.5508 10.4656 22.4481 10.1547 22.14C9.84375 21.832 9.63645 21.5239 9.53281 21.1132C9.42916 20.8051 9.32551 20.3944 9.22186 19.5729C9.22186 18.6487 9.22186 18.4433 9.22186 16.0815C9.22186 13.7198 9.22186 13.5144 9.22186 12.5902C9.22186 11.7687 9.42916 11.358 9.53281 11.0499C9.7401 10.6392 9.84375 10.3311 10.1547 10.0231C10.4656 9.715 10.7766 9.50963 11.1912 9.40694C11.5021 9.30426 11.9167 9.20157 12.7459 9.09889C13.6787 9.09889 13.9897 9.09889 16.2699 9.09889ZM16.2699 7.55859C13.886 7.55859 13.6787 7.55859 12.7459 7.55859C11.8131 7.55859 11.1912 7.76397 10.6729 7.96934C10.1547 8.17471 9.63645 8.48277 9.11822 8.9962C8.59998 9.50963 8.39268 9.92038 8.08174 10.5365C7.87444 11.0499 7.77079 11.666 7.66714 12.5902C7.66714 13.5144 7.66714 13.8224 7.66714 16.0815C7.66714 18.4433 7.66714 18.6487 7.66714 19.5729C7.66714 20.497 7.87444 21.1132 8.08174 21.6266C8.28903 22.14 8.59998 22.6535 9.11822 23.1669C9.63645 23.6803 10.051 23.8857 10.6729 24.1938C11.1912 24.3991 11.8131 24.5018 12.7459 24.6045C13.6787 24.6045 13.9897 24.6045 16.2699 24.6045C18.5502 24.6045 18.8611 24.6045 19.7939 24.6045C20.7268 24.6045 21.3487 24.3991 21.8669 24.1938C22.3851 23.9884 22.9034 23.6803 23.4216 23.1669C23.9399 22.6535 24.1472 22.2427 24.4581 21.6266C24.6654 21.1132 24.769 20.497 24.8727 19.5729C24.8727 18.6487 24.8727 18.3406 24.8727 16.0815C24.8727 13.8224 24.8727 13.5144 24.8727 12.5902C24.8727 11.666 24.6654 11.0499 24.4581 10.5365C24.2508 10.0231 23.9399 9.50963 23.4216 8.9962C22.9034 8.48277 22.4888 8.2774 21.8669 7.96934C21.3487 7.76397 20.7268 7.66128 19.7939 7.55859C18.8611 7.55859 18.6538 7.55859 16.2699 7.55859Z" fill="white"/>
<path d="M16.2699 11.666C13.7824 11.666 11.8131 13.6171 11.8131 16.0815C11.8131 18.546 13.7824 20.497 16.2699 20.497C18.7575 20.497 20.7268 18.546 20.7268 16.0815C20.7268 13.6171 18.7575 11.666 16.2699 11.666ZM16.2699 18.9568C14.7152 18.9568 13.3678 17.7245 13.3678 16.0815C13.3678 14.5413 14.6115 13.2063 16.2699 13.2063C17.8246 13.2063 19.1721 14.4386 19.1721 16.0815C19.1721 17.6218 17.8246 18.9568 16.2699 18.9568Z" fill="white"/>
<path d="M20.8304 12.5902C21.4029 12.5902 21.8669 12.1305 21.8669 11.5634C21.8669 10.9962 21.4029 10.5365 20.8304 10.5365C20.258 10.5365 19.7939 10.9962 19.7939 11.5634C19.7939 12.1305 20.258 12.5902 20.8304 12.5902Z" fill="white"/>
<path d="M68.0811 16.0823C68.0811 11.3953 64.2104 7.56055 59.4796 7.56055C54.7487 7.56055 50.8781 11.3953 50.8781 16.0823C50.8781 20.3431 53.9961 23.8583 58.0818 24.4974V18.5322H55.9314V16.0823H58.0818V14.1649C58.0818 12.0344 59.372 10.8627 61.3074 10.8627C62.2751 10.8627 63.2427 11.0758 63.2427 11.0758V13.2062H62.1675C61.0923 13.2062 60.7698 13.8453 60.7698 14.4844V16.0823H63.1352L62.7051 18.5322H60.6623V24.604C64.963 23.9648 68.0811 20.3431 68.0811 16.0823Z" fill="white"/>
<path d="M110.855 11.9281C110.64 11.1824 110.103 10.6498 109.35 10.4368C108.06 10.1172 102.577 10.1172 102.577 10.1172C102.577 10.1172 97.2006 10.1172 95.8028 10.4368C95.0502 10.6498 94.5126 11.1824 94.2976 11.9281C94.0825 13.3128 94.0825 16.0824 94.0825 16.0824C94.0825 16.0824 94.0825 18.8519 94.4051 20.2367C94.6201 20.9824 95.1577 21.515 95.9103 21.728C97.2006 22.0476 102.684 22.0476 102.684 22.0476C102.684 22.0476 108.06 22.0476 109.458 21.728C110.21 21.515 110.748 20.9824 110.963 20.2367C111.286 18.8519 111.286 16.0824 111.286 16.0824C111.286 16.0824 111.286 13.3128 110.855 11.9281ZM100.964 18.6389V13.5259L105.48 16.0824L100.964 18.6389Z" fill="white"/>
<path d="M154.493 10.758C153.848 11.0775 153.203 11.1841 152.45 11.2906C153.203 10.8645 153.74 10.2254 153.955 9.3732C153.31 9.79928 152.558 10.0123 151.697 10.2254C151.052 9.58624 150.085 9.16016 149.117 9.16016C146.859 9.16016 145.139 11.2906 145.676 13.421C142.773 13.3145 140.193 11.9297 138.365 9.79928C137.397 11.3971 137.935 13.421 139.44 14.4862C138.903 14.4862 138.365 14.2732 137.828 14.0601C137.828 15.658 139.01 17.1493 140.623 17.5753C140.085 17.6819 139.548 17.7884 139.01 17.6819C139.44 19.0666 140.731 20.1319 142.343 20.1319C141.053 21.0905 139.118 21.6232 137.29 21.4101C138.903 22.3688 140.731 23.0079 142.666 23.0079C149.225 23.0079 152.88 17.5753 152.665 12.5688C153.418 12.1428 154.063 11.5036 154.493 10.758Z" fill="white"/>
<path d="M189.099 7.55859C184.348 7.55859 180.498 11.3734 180.498 16.0803C180.498 19.692 182.766 22.7745 185.964 24.0161C185.89 23.3404 185.82 22.3085 185.994 21.5728C186.152 20.907 187.002 17.3386 187.002 17.3386C187.002 17.3386 186.744 16.8293 186.744 16.0736C186.744 14.8886 187.436 14.0031 188.299 14.0031C189.032 14.0031 189.388 14.5491 189.388 15.2048C189.388 15.9372 188.918 17.029 188.676 18.041C188.474 18.8898 189.106 19.5822 189.949 19.5822C191.478 19.5822 192.654 17.9844 192.654 15.6808C192.654 13.6403 191.176 12.2122 189.062 12.2122C186.616 12.2122 185.178 14.0298 185.178 15.9105C185.178 16.6429 185.464 17.4285 185.82 17.8545C185.89 17.9378 185.9 18.0143 185.88 18.0975C185.816 18.3672 185.669 18.9464 185.642 19.0629C185.605 19.2193 185.517 19.2526 185.353 19.1761C184.278 18.6801 183.606 17.1255 183.606 15.8739C183.606 13.1843 185.578 10.7176 189.287 10.7176C192.271 10.7176 194.589 12.8247 194.589 15.6409C194.589 18.5769 192.721 20.9403 190.127 20.9403C189.257 20.9403 188.437 20.4909 188.155 19.9617C188.155 19.9617 187.725 21.5894 187.621 21.9889C187.426 22.7279 186.902 23.6566 186.552 24.2225C187.359 24.4689 188.212 24.602 189.099 24.602C193.85 24.602 197.701 20.7872 197.701 16.0803C197.701 11.3734 193.85 7.55859 189.099 7.55859Z" fill="white"/>
</svg>
