<svg width="20" height="5" viewBox="0 0 20 5" fill="none" xmlns="http://www.w3.org/2000/svg">
<path d="M17.0336 2.69544C16.9492 2.67894 16.8485 2.66582 16.7374 2.65685C16.6262 2.64787 16.5069 2.64322 16.3862 2.64316C16.2656 2.6431 16.1461 2.64764 16.0347 2.6565C15.9233 2.66537 15.8223 2.67839 15.7374 2.69481C15.6526 2.71123 15.5857 2.73071 15.5406 2.75212C15.4956 2.77354 15.4732 2.79645 15.4749 2.81954C15.4766 2.84262 15.5022 2.86541 15.5504 2.88658C15.5986 2.90774 15.6683 2.92687 15.7554 2.94283C16.5267 3.08806 17.1386 3.26131 17.5553 3.45242C17.9719 3.64352 18.1849 3.84862 18.1818 4.05569C18.1818 4.26845 14.9945 4.57759 10 4.57759C5.00548 4.57759 1.81822 4.26828 1.81822 4.05534C1.81512 3.84969 2.02524 3.64595 2.43643 3.45594C2.84761 3.26593 3.45168 3.09342 4.21366 2.94839C4.30049 2.93234 4.36974 2.91315 4.41739 2.89192C4.46503 2.8707 4.49011 2.84787 4.49116 2.82477C4.49221 2.80167 4.46921 2.77876 4.4235 2.75738C4.37779 2.736 4.31029 2.71658 4.22493 2.70025C4.13957 2.68391 4.03807 2.67099 3.92635 2.66225C3.81462 2.6535 3.69492 2.6491 3.57421 2.6493C3.4535 2.6495 3.33421 2.6543 3.2233 2.66342C3.11238 2.67253 3.01207 2.68579 2.92821 2.7024C1.99672 2.87971 1.25829 3.09062 0.755663 3.32291C0.253038 3.55521 -0.00379283 3.80427 4.23257e-05 4.05569C4.23257e-05 4.62074 5.15184 4.92553 10 4.92553C14.8482 4.92553 20 4.62074 20 4.05569C20.004 3.80258 19.7437 3.55186 19.2342 3.31827C18.7248 3.08468 17.9766 2.87292 17.0336 2.69544Z" fill="#F3F2EE"/>
<path d="M10.0001 2.83788C11.2587 2.83788 12.489 2.76646 13.5355 2.63265C14.582 2.49884 15.3976 2.30865 15.8793 2.08613C16.3609 1.86361 16.487 1.61876 16.2414 1.38254C15.9959 1.14631 15.3898 0.929328 14.4998 0.75902C13.6099 0.588712 12.476 0.472731 11.2416 0.425743C10.0071 0.378756 8.72763 0.402871 7.56484 0.495041C6.40204 0.587211 5.40818 0.743296 4.70894 0.943557C4.00969 1.14382 3.63647 1.37926 3.63647 1.62011C3.6384 1.94297 4.30947 2.2525 5.50246 2.4808C6.69545 2.70909 8.31294 2.83751 10.0001 2.83788ZM10.0001 0.750278C10.8991 0.750278 11.7779 0.801293 12.5254 0.896872C13.2729 0.99245 13.8555 1.1283 14.1995 1.28724C14.5436 1.44618 14.6336 1.62108 14.4582 1.78981C14.2828 1.95854 13.8499 2.11353 13.2142 2.23518C12.5785 2.35683 11.7686 2.43967 10.8869 2.47323C10.0051 2.5068 9.09119 2.48957 8.26062 2.42374C7.43005 2.3579 6.72015 2.24641 6.22069 2.10337C5.72123 1.96032 5.45465 1.79215 5.45465 1.62011C5.45609 1.3895 5.93545 1.16842 6.78757 1.00535C7.63969 0.842286 8.795 0.750554 10.0001 0.750278Z" fill="#F3F2EE"/>
</svg>
