<svg width="205" height="33" viewBox="0 0 205 33" fill="none" xmlns="http://www.w3.org/2000/svg">
<ellipse opacity="0.05" cx="17.0272" cy="16.0815" rx="16.0983" ry="16.0815" fill="white"/>
<ellipse opacity="0.05" cx="59.8785" cy="16.0815" rx="16.0983" ry="16.0815" fill="white"/>
<ellipse opacity="0.05" cx="102.726" cy="16.0815" rx="16.0983" ry="16.0815" fill="white"/>
<ellipse opacity="0.05" cx="145.578" cy="16.0815" rx="16.0983" ry="16.0815" fill="white"/>
<ellipse opacity="0.05" cx="188.429" cy="16.0815" rx="16.0983" ry="16.0815" fill="white"/>
<path d="M17.026 9.09889C19.2874 9.09889 19.5958 9.09889 20.5209 9.09889C21.3433 9.09889 21.7544 9.30426 22.0628 9.40694C22.474 9.61232 22.7824 9.715 23.0907 10.0231C23.3991 10.3311 23.6047 10.6392 23.7075 11.0499C23.8103 11.358 23.9131 11.7687 24.0159 12.5902C24.0159 13.5144 24.0159 13.7198 24.0159 16.0815C24.0159 18.4433 24.0159 18.6487 24.0159 19.5729C24.0159 20.3944 23.8103 20.8051 23.7075 21.1132C23.5019 21.5239 23.3991 21.832 23.0907 22.14C22.7824 22.4481 22.474 22.6535 22.0628 22.7561C21.7544 22.8588 21.3433 22.9615 20.5209 23.0642C19.5958 23.0642 19.3902 23.0642 17.026 23.0642C14.6617 23.0642 14.4561 23.0642 13.531 23.0642C12.7087 23.0642 12.2975 22.8588 11.9891 22.7561C11.5779 22.5508 11.2696 22.4481 10.9612 22.14C10.6528 21.832 10.4472 21.5239 10.3444 21.1132C10.2416 20.8051 10.1388 20.3944 10.036 19.5729C10.036 18.6487 10.036 18.4433 10.036 16.0815C10.036 13.7198 10.036 13.5144 10.036 12.5902C10.036 11.7687 10.2416 11.358 10.3444 11.0499C10.55 10.6392 10.6528 10.3311 10.9612 10.0231C11.2696 9.715 11.5779 9.50963 11.9891 9.40694C12.2975 9.30426 12.7087 9.20157 13.531 9.09889C14.4561 9.09889 14.7645 9.09889 17.026 9.09889ZM17.026 7.55859C14.6617 7.55859 14.4561 7.55859 13.531 7.55859C12.6059 7.55859 11.9891 7.76397 11.4751 7.96934C10.9612 8.17471 10.4472 8.48277 9.93324 8.9962C9.41928 9.50963 9.21369 9.92038 8.90531 10.5365C8.69973 11.0499 8.59693 11.666 8.49414 12.5902C8.49414 13.5144 8.49414 13.8224 8.49414 16.0815C8.49414 18.4433 8.49414 18.6487 8.49414 19.5729C8.49414 20.497 8.69973 21.1132 8.90531 21.6266C9.1109 22.14 9.41928 22.6535 9.93324 23.1669C10.4472 23.6803 10.8584 23.8857 11.4751 24.1938C11.9891 24.3991 12.6059 24.5018 13.531 24.6045C14.4561 24.6045 14.7645 24.6045 17.026 24.6045C19.2874 24.6045 19.5958 24.6045 20.5209 24.6045C21.4461 24.6045 22.0628 24.3991 22.5768 24.1938C23.0907 23.9884 23.6047 23.6803 24.1187 23.1669C24.6326 22.6535 24.8382 22.2427 25.1466 21.6266C25.3522 21.1132 25.455 20.497 25.5578 19.5729C25.5578 18.6487 25.5578 18.3406 25.5578 16.0815C25.5578 13.8224 25.5578 13.5144 25.5578 12.5902C25.5578 11.666 25.3522 11.0499 25.1466 10.5365C24.941 10.0231 24.6326 9.50963 24.1187 8.9962C23.6047 8.48277 23.1935 8.2774 22.5768 7.96934C22.0628 7.76397 21.4461 7.66128 20.5209 7.55859C19.5958 7.55859 19.3902 7.55859 17.026 7.55859Z" fill="white"/>
<path d="M17.026 11.666C14.5589 11.666 12.6059 13.6171 12.6059 16.0815C12.6059 18.546 14.5589 20.497 17.026 20.497C19.493 20.497 21.4461 18.546 21.4461 16.0815C21.4461 13.6171 19.493 11.666 17.026 11.666ZM17.026 18.9568C15.4841 18.9568 14.1478 17.7245 14.1478 16.0815C14.1478 14.5413 15.3813 13.2063 17.026 13.2063C18.5679 13.2063 19.9042 14.4386 19.9042 16.0815C19.9042 17.6218 18.5679 18.9568 17.026 18.9568Z" fill="white"/>
<path d="M21.5489 12.5902C22.1166 12.5902 22.5768 12.1305 22.5768 11.5634C22.5768 10.9962 22.1166 10.5365 21.5489 10.5365C20.9811 10.5365 20.5209 10.9962 20.5209 11.5634C20.5209 12.1305 20.9811 12.5902 21.5489 12.5902Z" fill="white"/>
<path d="M68.4098 16.0823C68.4098 11.3953 64.571 7.56055 59.8792 7.56055C55.1874 7.56055 51.3486 11.3953 51.3486 16.0823C51.3486 20.3431 54.441 23.8583 58.493 24.4974V18.5322H56.3603V16.0823H58.493V14.1649C58.493 12.0344 59.7726 10.8627 61.692 10.8627C62.6516 10.8627 63.6113 11.0758 63.6113 11.0758V13.2062H62.545C61.4787 13.2062 61.1588 13.8453 61.1588 14.4844V16.0823H63.5047L63.0782 18.5322H61.0522V24.604C65.3174 23.9648 68.4098 20.3431 68.4098 16.0823Z" fill="white"/>
<path d="M110.831 11.9281C110.618 11.1824 110.085 10.6498 109.339 10.4368C108.059 10.1172 102.621 10.1172 102.621 10.1172C102.621 10.1172 97.2891 10.1172 95.9029 10.4368C95.1565 10.6498 94.6233 11.1824 94.41 11.9281C94.1968 13.3128 94.1968 16.0824 94.1968 16.0824C94.1968 16.0824 94.1968 18.8519 94.5167 20.2367C94.7299 20.9824 95.2631 21.515 96.0095 21.728C97.2891 22.0476 102.727 22.0476 102.727 22.0476C102.727 22.0476 108.059 22.0476 109.445 21.728C110.192 21.515 110.725 20.9824 110.938 20.2367C111.258 18.8519 111.258 16.0824 111.258 16.0824C111.258 16.0824 111.258 13.3128 110.831 11.9281ZM101.021 18.6389V13.5259L105.5 16.0824L101.021 18.6389Z" fill="white"/>
<path d="M154.109 10.758C153.469 11.0775 152.829 11.1841 152.083 11.2906C152.829 10.8645 153.363 10.2254 153.576 9.3732C152.936 9.79928 152.19 10.0123 151.337 10.2254C150.697 9.58624 149.737 9.16016 148.777 9.16016C146.538 9.16016 144.832 11.2906 145.365 13.421C142.486 13.3145 139.927 11.9297 138.114 9.79928C137.154 11.3971 137.688 13.421 139.18 14.4862C138.647 14.4862 138.114 14.2732 137.581 14.0601C137.581 15.658 138.754 17.1493 140.353 17.5753C139.82 17.6819 139.287 17.7884 138.754 17.6819C139.18 19.0666 140.46 20.1319 142.06 20.1319C140.78 21.0905 138.861 21.6232 137.048 21.4101C138.647 22.3688 140.46 23.0079 142.379 23.0079C148.884 23.0079 152.51 17.5753 152.296 12.5688C153.043 12.1428 153.682 11.5036 154.109 10.758Z" fill="white"/>
<path d="M188.43 7.55859C183.718 7.55859 179.899 11.3734 179.899 16.0803C179.899 19.692 182.148 22.7745 185.321 24.0161C185.247 23.3404 185.177 22.3085 185.351 21.5728C185.507 20.907 186.35 17.3386 186.35 17.3386C186.35 17.3386 186.094 16.8293 186.094 16.0736C186.094 14.8886 186.78 14.0031 187.637 14.0031C188.363 14.0031 188.716 14.5491 188.716 15.2048C188.716 15.9372 188.25 17.029 188.01 18.041C187.81 18.8898 188.436 19.5822 189.273 19.5822C190.789 19.5822 191.955 17.9844 191.955 15.6808C191.955 13.6403 190.489 12.2122 188.393 12.2122C185.967 12.2122 184.541 14.0298 184.541 15.9105C184.541 16.6429 184.824 17.4285 185.177 17.8545C185.247 17.9378 185.257 18.0143 185.237 18.0975C185.174 18.3672 185.028 18.9464 185.001 19.0629C184.964 19.2193 184.878 19.2526 184.714 19.1761C183.648 18.6801 182.982 17.1255 182.982 15.8739C182.982 13.1843 184.938 10.7176 188.616 10.7176C191.575 10.7176 193.875 12.8247 193.875 15.6409C193.875 18.5769 192.022 20.9403 189.449 20.9403C188.586 20.9403 187.773 20.4909 187.493 19.9617C187.493 19.9617 187.067 21.5894 186.964 21.9889C186.77 22.7279 186.25 23.6566 185.904 24.2225C186.704 24.4689 187.55 24.602 188.43 24.602C193.142 24.602 196.96 20.7872 196.96 16.0803C196.96 11.3734 193.142 7.55859 188.43 7.55859Z" fill="white"/>
</svg>
