<svg width="206" height="34" viewBox="0 0 206 34" fill="none" xmlns="http://www.w3.org/2000/svg">
<ellipse opacity="0.05" cx="16.2712" cy="17.0689" rx="16.2321" ry="16.1147" fill="white"/>
<ellipse opacity="0.05" cx="59.4789" cy="17.0689" rx="16.2321" ry="16.1147" fill="white"/>
<ellipse opacity="0.05" cx="102.683" cy="17.0689" rx="16.2321" ry="16.1147" fill="white"/>
<ellipse opacity="0.05" cx="145.891" cy="17.0689" rx="16.2321" ry="16.1147" fill="white"/>
<ellipse opacity="0.05" cx="189.098" cy="17.0689" rx="16.2321" ry="16.1147" fill="white"/>
<path d="M16.2699 10.0718C18.5502 10.0718 18.8611 10.0718 19.7939 10.0718C20.6231 10.0718 21.0377 10.2776 21.3487 10.3805C21.7632 10.5863 22.0742 10.6892 22.3851 10.9979C22.6961 11.3066 22.9034 11.6153 23.007 12.0269C23.1107 12.3356 23.2143 12.7471 23.318 13.5703C23.318 14.4964 23.318 14.7022 23.318 17.0689C23.318 19.4355 23.318 19.6413 23.318 20.5674C23.318 21.3906 23.1107 21.8022 23.007 22.1109C22.7997 22.5225 22.6961 22.8312 22.3851 23.1399C22.0742 23.4486 21.7632 23.6544 21.3487 23.7573C21.0377 23.8602 20.6231 23.963 19.7939 24.0659C18.8611 24.0659 18.6538 24.0659 16.2699 24.0659C13.886 24.0659 13.6787 24.0659 12.7459 24.0659C11.9167 24.0659 11.5021 23.8602 11.1912 23.7573C10.7766 23.5515 10.4656 23.4486 10.1547 23.1399C9.84375 22.8312 9.63645 22.5225 9.53281 22.1109C9.42916 21.8022 9.32551 21.3906 9.22186 20.5674C9.22186 19.6413 9.22186 19.4355 9.22186 17.0689C9.22186 14.7022 9.22186 14.4964 9.22186 13.5703C9.22186 12.7471 9.42916 12.3356 9.53281 12.0269C9.7401 11.6153 9.84375 11.3066 10.1547 10.9979C10.4656 10.6892 10.7766 10.4834 11.1912 10.3805C11.5021 10.2776 11.9167 10.1747 12.7459 10.0718C13.6787 10.0718 13.9897 10.0718 16.2699 10.0718ZM16.2699 8.52832C13.886 8.52832 13.6787 8.52832 12.7459 8.52832C11.8131 8.52832 11.1912 8.73412 10.6729 8.93991C10.1547 9.14571 9.63645 9.4544 9.11822 9.9689C8.59998 10.4834 8.39268 10.895 8.08174 11.5124C7.87444 12.0269 7.77079 12.6442 7.66714 13.5703C7.66714 14.4964 7.66714 14.8051 7.66714 17.0689C7.66714 19.4355 7.66714 19.6413 7.66714 20.5674C7.66714 21.4935 7.87444 22.1109 8.08174 22.6254C8.28903 23.1399 8.59998 23.6544 9.11822 24.1688C9.63645 24.6833 10.051 24.8891 10.6729 25.1978C11.1912 25.4036 11.8131 25.5065 12.7459 25.6094C13.6787 25.6094 13.9897 25.6094 16.2699 25.6094C18.5502 25.6094 18.8611 25.6094 19.7939 25.6094C20.7268 25.6094 21.3487 25.4036 21.8669 25.1978C22.3851 24.992 22.9034 24.6833 23.4216 24.1688C23.9399 23.6544 24.1472 23.2428 24.4581 22.6254C24.6654 22.1109 24.769 21.4935 24.8727 20.5674C24.8727 19.6413 24.8727 19.3326 24.8727 17.0689C24.8727 14.8051 24.8727 14.4964 24.8727 13.5703C24.8727 12.6442 24.6654 12.0269 24.4581 11.5124C24.2508 10.9979 23.9399 10.4834 23.4216 9.9689C22.9034 9.4544 22.4888 9.24861 21.8669 8.93991C21.3487 8.73412 20.7268 8.63122 19.7939 8.52832C18.8611 8.52832 18.6538 8.52832 16.2699 8.52832Z" fill="white"/>
<path d="M16.2699 12.6442C13.7824 12.6442 11.8131 14.5993 11.8131 17.0689C11.8131 19.5384 13.7824 21.4935 16.2699 21.4935C18.7575 21.4935 20.7268 19.5384 20.7268 17.0689C20.7268 14.5993 18.7575 12.6442 16.2699 12.6442ZM16.2699 19.95C14.7152 19.95 13.3678 18.7152 13.3678 17.0689C13.3678 15.5254 14.6115 14.1877 16.2699 14.1877C17.8246 14.1877 19.1721 15.4225 19.1721 17.0689C19.1721 18.6123 17.8246 19.95 16.2699 19.95Z" fill="white"/>
<path d="M20.8304 13.5703C21.4029 13.5703 21.8669 13.1096 21.8669 12.5414C21.8669 11.9731 21.4029 11.5124 20.8304 11.5124C20.258 11.5124 19.7939 11.9731 19.7939 12.5414C19.7939 13.1096 20.258 13.5703 20.8304 13.5703Z" fill="white"/>
<path d="M68.0811 17.0696C68.0811 12.373 64.2104 8.53027 59.4796 8.53027C54.7487 8.53027 50.8781 12.373 50.8781 17.0696C50.8781 21.3392 53.9961 24.8617 58.0818 25.5021V19.5246H55.9314V17.0696H58.0818V15.1482C58.0818 13.0134 59.372 11.8393 61.3074 11.8393C62.2751 11.8393 63.2427 12.0527 63.2427 12.0527V14.1876H62.1675C61.0923 14.1876 60.7698 14.828 60.7698 15.4685V17.0696H63.1352L62.7051 19.5246H60.6623V25.6089C64.963 24.9684 68.0811 21.3392 68.0811 17.0696Z" fill="white"/>
<path d="M110.855 12.9074C110.64 12.1602 110.103 11.6265 109.35 11.413C108.06 11.0928 102.577 11.0928 102.577 11.0928C102.577 11.0928 97.2006 11.0928 95.8028 11.413C95.0502 11.6265 94.5126 12.1602 94.2976 12.9074C94.0825 14.295 94.0825 17.0703 94.0825 17.0703C94.0825 17.0703 94.0825 19.8456 94.4051 21.2332C94.6201 21.9804 95.1577 22.5141 95.9103 22.7276C97.2006 23.0478 102.684 23.0478 102.684 23.0478C102.684 23.0478 108.06 23.0478 109.458 22.7276C110.21 22.5141 110.748 21.9804 110.963 21.2332C111.286 19.8456 111.286 17.0703 111.286 17.0703C111.286 17.0703 111.286 14.295 110.855 12.9074ZM100.964 19.6321V14.5085L105.48 17.0703L100.964 19.6321Z" fill="white"/>
<path d="M154.493 11.7349C153.848 12.0551 153.203 12.1619 152.45 12.2686C153.203 11.8416 153.74 11.2012 153.955 10.3473C153.31 10.7742 152.558 10.9877 151.697 11.2012C151.052 10.5608 150.085 10.1338 149.117 10.1338C146.859 10.1338 145.139 12.2686 145.676 14.4034C142.773 14.2967 140.193 12.9091 138.365 10.7742C137.397 12.3754 137.935 14.4034 139.44 15.4709C138.903 15.4709 138.365 15.2574 137.828 15.0439C137.828 16.645 139.01 18.1394 140.623 18.5663C140.085 18.6731 139.548 18.7798 139.01 18.6731C139.44 20.0607 140.731 21.1281 142.343 21.1281C141.053 22.0888 139.118 22.6225 137.29 22.409C138.903 23.3697 140.731 24.0102 142.666 24.0102C149.225 24.0102 152.88 18.5663 152.665 13.5495C153.418 13.1225 154.063 12.4821 154.493 11.7349Z" fill="white"/>
<path d="M189.099 8.52832C184.348 8.52832 180.498 12.351 180.498 17.0676C180.498 20.6868 182.766 23.7756 185.964 25.0198C185.89 24.3427 185.82 23.3087 185.994 22.5715C186.152 21.9043 187.002 18.3285 187.002 18.3285C187.002 18.3285 186.744 17.8181 186.744 17.061C186.744 15.8735 187.436 14.9862 188.299 14.9862C189.032 14.9862 189.388 15.5332 189.388 16.1903C189.388 16.9242 188.918 18.0183 188.676 19.0323C188.474 19.8829 189.106 20.5767 189.949 20.5767C191.478 20.5767 192.654 18.9756 192.654 16.6673C192.654 14.6226 191.176 13.1916 189.062 13.1916C186.616 13.1916 185.178 15.0129 185.178 16.8975C185.178 17.6314 185.464 18.4186 185.82 18.8455C185.89 18.9289 185.9 19.0056 185.88 19.089C185.816 19.3592 185.669 19.9396 185.642 20.0564C185.605 20.2132 185.517 20.2465 185.353 20.1698C184.278 19.6728 183.606 18.115 183.606 16.8608C183.606 14.1656 185.578 11.6939 189.287 11.6939C192.271 11.6939 194.589 13.8053 194.589 16.6273C194.589 19.5694 192.721 21.9377 190.127 21.9377C189.257 21.9377 188.437 21.4874 188.155 20.957C188.155 20.957 187.725 22.5881 187.621 22.9884C187.426 23.7289 186.902 24.6596 186.552 25.2267C187.359 25.4735 188.212 25.6069 189.099 25.6069C193.85 25.6069 197.701 21.7843 197.701 17.0676C197.701 12.351 193.85 8.52832 189.099 8.52832Z" fill="white"/>
</svg>
