<svg width="204" height="33" viewBox="0 0 204 33" fill="none" xmlns="http://www.w3.org/2000/svg">
<circle opacity="0.05" cx="16.4805" cy="16.0815" r="16.0815" fill="white"/>
<circle opacity="0.05" cx="59.2872" cy="16.0815" r="16.0815" fill="white"/>
<circle opacity="0.05" cx="102.091" cy="16.0815" r="16.0815" fill="white"/>
<circle opacity="0.05" cx="144.897" cy="16.0815" r="16.0815" fill="white"/>
<circle opacity="0.05" cx="187.704" cy="16.0815" r="16.0815" fill="white"/>
<path d="M16.4792 9.09889C18.7383 9.09889 19.0464 9.09889 19.9705 9.09889C20.792 9.09889 21.2028 9.30426 21.5108 9.40694C21.9216 9.61232 22.2296 9.715 22.5377 10.0231C22.8458 10.3311 23.0511 10.6392 23.1538 11.0499C23.2565 11.358 23.3592 11.7687 23.4619 12.5902C23.4619 13.5144 23.4619 13.7198 23.4619 16.0815C23.4619 18.4433 23.4619 18.6487 23.4619 19.5729C23.4619 20.3944 23.2565 20.8051 23.1538 21.1132C22.9484 21.5239 22.8458 21.832 22.5377 22.14C22.2296 22.4481 21.9216 22.6535 21.5108 22.7561C21.2028 22.8588 20.792 22.9615 19.9705 23.0642C19.0464 23.0642 18.841 23.0642 16.4792 23.0642C14.1174 23.0642 13.9121 23.0642 12.9879 23.0642C12.1664 23.0642 11.7557 22.8588 11.4476 22.7561C11.0369 22.5508 10.7288 22.4481 10.4207 22.14C10.1127 21.832 9.90731 21.5239 9.80462 21.1132C9.70193 20.8051 9.59925 20.3944 9.49656 19.5729C9.49656 18.6487 9.49656 18.4433 9.49656 16.0815C9.49656 13.7198 9.49656 13.5144 9.49656 12.5902C9.49656 11.7687 9.70193 11.358 9.80462 11.0499C10.01 10.6392 10.1127 10.3311 10.4207 10.0231C10.7288 9.715 11.0369 9.50963 11.4476 9.40694C11.7557 9.30426 12.1664 9.20157 12.9879 9.09889C13.9121 9.09889 14.2201 9.09889 16.4792 9.09889ZM16.4792 7.55859C14.1174 7.55859 13.9121 7.55859 12.9879 7.55859C12.0637 7.55859 11.4476 7.76397 10.9342 7.96934C10.4207 8.17471 9.90731 8.48277 9.39387 8.9962C8.88044 9.50963 8.67507 9.92038 8.36701 10.5365C8.16164 11.0499 8.05895 11.666 7.95627 12.5902C7.95627 13.5144 7.95627 13.8224 7.95627 16.0815C7.95627 18.4433 7.95627 18.6487 7.95627 19.5729C7.95627 20.497 8.16164 21.1132 8.36701 21.6266C8.57239 22.14 8.88044 22.6535 9.39387 23.1669C9.90731 23.6803 10.3181 23.8857 10.9342 24.1938C11.4476 24.3991 12.0637 24.5018 12.9879 24.6045C13.9121 24.6045 14.2201 24.6045 16.4792 24.6045C18.7383 24.6045 19.0464 24.6045 19.9705 24.6045C20.8947 24.6045 21.5108 24.3991 22.0243 24.1938C22.5377 23.9884 23.0511 23.6803 23.5646 23.1669C24.078 22.6535 24.2834 22.2427 24.5914 21.6266C24.7968 21.1132 24.8995 20.497 25.0022 19.5729C25.0022 18.6487 25.0022 18.3406 25.0022 16.0815C25.0022 13.8224 25.0022 13.5144 25.0022 12.5902C25.0022 11.666 24.7968 11.0499 24.5914 10.5365C24.3861 10.0231 24.078 9.50963 23.5646 8.9962C23.0511 8.48277 22.6404 8.2774 22.0243 7.96934C21.5108 7.76397 20.8947 7.66128 19.9705 7.55859C19.0464 7.55859 18.841 7.55859 16.4792 7.55859Z" fill="white"/>
<path d="M16.4792 11.666C14.0148 11.666 12.0637 13.6171 12.0637 16.0815C12.0637 18.546 14.0148 20.497 16.4792 20.497C18.9437 20.497 20.8947 18.546 20.8947 16.0815C20.8947 13.6171 18.9437 11.666 16.4792 11.666ZM16.4792 18.9568C14.9389 18.9568 13.604 17.7245 13.604 16.0815C13.604 14.5413 14.8362 13.2063 16.4792 13.2063C18.0195 13.2063 19.3544 14.4386 19.3544 16.0815C19.3544 17.6218 18.0195 18.9568 16.4792 18.9568Z" fill="white"/>
<path d="M20.9974 12.5902C21.5645 12.5902 22.0243 12.1305 22.0243 11.5634C22.0243 10.9962 21.5645 10.5365 20.9974 10.5365C20.4303 10.5365 19.9705 10.9962 19.9705 11.5634C19.9705 12.1305 20.4303 12.5902 20.9974 12.5902Z" fill="white"/>
<path d="M67.8096 16.0823C67.8096 11.3953 63.9748 7.56055 59.2879 7.56055C54.601 7.56055 50.7662 11.3953 50.7662 16.0823C50.7662 20.3431 53.8553 23.8583 57.9031 24.4974V18.5322H55.7727V16.0823H57.9031V14.1649C57.9031 12.0344 59.1814 10.8627 61.0988 10.8627C62.0575 10.8627 63.0162 11.0758 63.0162 11.0758V13.2062H61.9509C60.8857 13.2062 60.5662 13.8453 60.5662 14.4844V16.0823H62.9096L62.4836 18.5322H60.4596V24.604C64.7205 23.9648 67.8096 20.3431 67.8096 16.0823Z" fill="white"/>
<path d="M110.187 11.9281C109.974 11.1824 109.441 10.6498 108.696 10.4368C107.417 10.1172 101.985 10.1172 101.985 10.1172C101.985 10.1172 96.6588 10.1172 95.274 10.4368C94.5284 10.6498 93.9958 11.1824 93.7827 11.9281C93.5697 13.3128 93.5697 16.0824 93.5697 16.0824C93.5697 16.0824 93.5697 18.8519 93.8893 20.2367C94.1023 20.9824 94.6349 21.515 95.3806 21.728C96.6588 22.0476 102.091 22.0476 102.091 22.0476C102.091 22.0476 107.417 22.0476 108.802 21.728C109.548 21.515 110.081 20.9824 110.294 20.2367C110.613 18.8519 110.613 16.0824 110.613 16.0824C110.613 16.0824 110.613 13.3128 110.187 11.9281ZM100.387 18.6389V13.5259L104.861 16.0824L100.387 18.6389Z" fill="white"/>
<path d="M153.42 10.758C152.781 11.0775 152.142 11.1841 151.396 11.2906C152.142 10.8645 152.674 10.2254 152.887 9.3732C152.248 9.79928 151.502 10.0123 150.65 10.2254C150.011 9.58624 149.052 9.16016 148.094 9.16016C145.857 9.16016 144.152 11.2906 144.685 13.421C141.809 13.3145 139.252 11.9297 137.442 9.79928C136.483 11.3971 137.016 13.421 138.507 14.4862C137.974 14.4862 137.442 14.2732 136.909 14.0601C136.909 15.658 138.081 17.1493 139.679 17.5753C139.146 17.6819 138.613 17.7884 138.081 17.6819C138.507 19.0666 139.785 20.1319 141.383 20.1319C140.105 21.0905 138.187 21.6232 136.376 21.4101C137.974 22.3688 139.785 23.0079 141.702 23.0079C148.2 23.0079 151.822 17.5753 151.609 12.5688C152.355 12.1428 152.994 11.5036 153.42 10.758Z" fill="white"/>
<path d="M187.705 7.55859C182.998 7.55859 179.183 11.3734 179.183 16.0803C179.183 19.692 181.43 22.7745 184.599 24.0161C184.526 23.3404 184.456 22.3085 184.629 21.5728C184.785 20.907 185.628 17.3386 185.628 17.3386C185.628 17.3386 185.371 16.8293 185.371 16.0736C185.371 14.8886 186.057 14.0031 186.913 14.0031C187.638 14.0031 187.991 14.5491 187.991 15.2048C187.991 15.9372 187.525 17.029 187.285 18.041C187.086 18.8898 187.711 19.5822 188.547 19.5822C190.062 19.5822 191.227 17.9844 191.227 15.6808C191.227 13.6403 189.762 12.2122 187.668 12.2122C185.245 12.2122 183.82 14.0298 183.82 15.9105C183.82 16.6429 184.103 17.4285 184.456 17.8545C184.526 17.9378 184.536 18.0143 184.516 18.0975C184.453 18.3672 184.306 18.9464 184.279 19.0629C184.243 19.2194 184.156 19.2526 183.993 19.1761C182.928 18.6801 182.262 17.1255 182.262 15.8739C182.262 13.1843 184.216 10.7176 187.891 10.7176C190.847 10.7176 193.144 12.8247 193.144 15.6409C193.144 18.5769 191.293 20.9403 188.723 20.9403C187.861 20.9403 187.049 20.4909 186.769 19.9617C186.769 19.9617 186.343 21.5894 186.24 21.9889C186.047 22.7279 185.528 23.6566 185.182 24.2225C185.98 24.4689 186.826 24.602 187.705 24.602C192.412 24.602 196.227 20.7872 196.227 16.0803C196.227 11.3734 192.412 7.55859 187.705 7.55859Z" fill="white"/>
</svg>
