<svg width="205" height="33" viewBox="0 0 205 33" fill="none" xmlns="http://www.w3.org/2000/svg">
<ellipse opacity="0.05" cx="16.8978" cy="16.0815" rx="16.0983" ry="16.0815" fill="white"/>
<ellipse opacity="0.05" cx="59.7492" cy="16.0815" rx="16.0983" ry="16.0815" fill="white"/>
<ellipse opacity="0.05" cx="102.597" cy="16.0815" rx="16.0983" ry="16.0815" fill="white"/>
<ellipse opacity="0.05" cx="145.448" cy="16.0815" rx="16.0983" ry="16.0815" fill="white"/>
<ellipse opacity="0.05" cx="188.3" cy="16.0815" rx="16.0983" ry="16.0815" fill="white"/>
<path d="M16.8966 9.09889C19.158 9.09889 19.4664 9.09889 20.3915 9.09889C21.2139 9.09889 21.625 9.30426 21.9334 9.40694C22.3446 9.61232 22.653 9.715 22.9614 10.0231C23.2697 10.3311 23.4753 10.6392 23.5781 11.0499C23.6809 11.358 23.7837 11.7687 23.8865 12.5902C23.8865 13.5144 23.8865 13.7198 23.8865 16.0815C23.8865 18.4433 23.8865 18.6487 23.8865 19.5729C23.8865 20.3944 23.6809 20.8051 23.5781 21.1132C23.3725 21.5239 23.2697 21.832 22.9614 22.14C22.653 22.4481 22.3446 22.6535 21.9334 22.7561C21.625 22.8588 21.2139 22.9615 20.3915 23.0642C19.4664 23.0642 19.2608 23.0642 16.8966 23.0642C14.5323 23.0642 14.3267 23.0642 13.4016 23.0642C12.5793 23.0642 12.1681 22.8588 11.8597 22.7561C11.4485 22.5508 11.1402 22.4481 10.8318 22.14C10.5234 21.832 10.3178 21.5239 10.215 21.1132C10.1122 20.8051 10.0094 20.3944 9.90664 19.5729C9.90664 18.6487 9.90664 18.4433 9.90664 16.0815C9.90664 13.7198 9.90664 13.5144 9.90664 12.5902C9.90664 11.7687 10.1122 11.358 10.215 11.0499C10.4206 10.6392 10.5234 10.3311 10.8318 10.0231C11.1402 9.715 11.4485 9.50963 11.8597 9.40694C12.1681 9.30426 12.5793 9.20157 13.4016 9.09889C14.3267 9.09889 14.6351 9.09889 16.8966 9.09889ZM16.8966 7.55859C14.5323 7.55859 14.3267 7.55859 13.4016 7.55859C12.4765 7.55859 11.8597 7.76397 11.3457 7.96934C10.8318 8.17471 10.3178 8.48277 9.80385 8.9962C9.28988 9.50963 9.0843 9.92038 8.77592 10.5365C8.57033 11.0499 8.46754 11.666 8.36475 12.5902C8.36475 13.5144 8.36475 13.8224 8.36475 16.0815C8.36475 18.4433 8.36475 18.6487 8.36475 19.5729C8.36475 20.497 8.57033 21.1132 8.77592 21.6266C8.9815 22.14 9.28988 22.6535 9.80385 23.1669C10.3178 23.6803 10.729 23.8857 11.3457 24.1938C11.8597 24.3991 12.4765 24.5018 13.4016 24.6045C14.3267 24.6045 14.6351 24.6045 16.8966 24.6045C19.158 24.6045 19.4664 24.6045 20.3915 24.6045C21.3167 24.6045 21.9334 24.3991 22.4474 24.1938C22.9614 23.9884 23.4753 23.6803 23.9893 23.1669C24.5032 22.6535 24.7088 22.2427 25.0172 21.6266C25.2228 21.1132 25.3256 20.497 25.4284 19.5729C25.4284 18.6487 25.4284 18.3406 25.4284 16.0815C25.4284 13.8224 25.4284 13.5144 25.4284 12.5902C25.4284 11.666 25.2228 11.0499 25.0172 10.5365C24.8116 10.0231 24.5032 9.50963 23.9893 8.9962C23.4753 8.48277 23.0641 8.2774 22.4474 7.96934C21.9334 7.76397 21.3167 7.66128 20.3915 7.55859C19.4664 7.55859 19.2608 7.55859 16.8966 7.55859Z" fill="white"/>
<path d="M16.8966 11.666C14.4295 11.666 12.4765 13.6171 12.4765 16.0815C12.4765 18.546 14.4295 20.497 16.8966 20.497C19.3636 20.497 21.3167 18.546 21.3167 16.0815C21.3167 13.6171 19.3636 11.666 16.8966 11.666ZM16.8966 18.9568C15.3547 18.9568 14.0184 17.7245 14.0184 16.0815C14.0184 14.5413 15.2519 13.2063 16.8966 13.2063C18.4385 13.2063 19.7748 14.4386 19.7748 16.0815C19.7748 17.6218 18.4385 18.9568 16.8966 18.9568Z" fill="white"/>
<path d="M21.4195 12.5902C21.9872 12.5902 22.4474 12.1305 22.4474 11.5634C22.4474 10.9962 21.9872 10.5365 21.4195 10.5365C20.8517 10.5365 20.3915 10.9962 20.3915 11.5634C20.3915 12.1305 20.8517 12.5902 21.4195 12.5902Z" fill="white"/>
<path d="M68.2804 16.0823C68.2804 11.3953 64.4416 7.56055 59.7498 7.56055C55.058 7.56055 51.2192 11.3953 51.2192 16.0823C51.2192 20.3431 54.3116 23.8583 58.3636 24.4974V18.5322H56.2309V16.0823H58.3636V14.1649C58.3636 12.0344 59.6432 10.8627 61.5626 10.8627C62.5222 10.8627 63.4819 11.0758 63.4819 11.0758V13.2062H62.4156C61.3493 13.2062 61.0294 13.8453 61.0294 14.4844V16.0823H63.3753L62.9488 18.5322H60.9228V24.604C65.1881 23.9648 68.2804 20.3431 68.2804 16.0823Z" fill="white"/>
<path d="M110.702 11.9281C110.489 11.1824 109.956 10.6498 109.209 10.4368C107.93 10.1172 102.491 10.1172 102.491 10.1172C102.491 10.1172 97.1597 10.1172 95.7735 10.4368C95.0271 10.6498 94.4939 11.1824 94.2806 11.9281C94.0674 13.3128 94.0674 16.0824 94.0674 16.0824C94.0674 16.0824 94.0674 18.8519 94.3873 20.2367C94.6005 20.9824 95.1337 21.515 95.8801 21.728C97.1597 22.0476 102.598 22.0476 102.598 22.0476C102.598 22.0476 107.93 22.0476 109.316 21.728C110.062 21.515 110.595 20.9824 110.809 20.2367C111.129 18.8519 111.129 16.0824 111.129 16.0824C111.129 16.0824 111.129 13.3128 110.702 11.9281ZM100.892 18.6389V13.5259L105.37 16.0824L100.892 18.6389Z" fill="white"/>
<path d="M153.98 10.758C153.34 11.0775 152.7 11.1841 151.954 11.2906C152.7 10.8645 153.233 10.2254 153.446 9.3732C152.807 9.79928 152.06 10.0123 151.207 10.2254C150.567 9.58624 149.608 9.16016 148.648 9.16016C146.409 9.16016 144.703 11.2906 145.236 13.421C142.357 13.3145 139.798 11.9297 137.985 9.79928C137.025 11.3971 137.558 13.421 139.051 14.4862C138.518 14.4862 137.985 14.2732 137.452 14.0601C137.452 15.658 138.625 17.1493 140.224 17.5753C139.691 17.6819 139.158 17.7884 138.625 17.6819C139.051 19.0666 140.331 20.1319 141.93 20.1319C140.651 21.0905 138.731 21.6232 136.918 21.4101C138.518 22.3688 140.331 23.0079 142.25 23.0079C148.755 23.0079 152.38 17.5753 152.167 12.5688C152.913 12.1428 153.553 11.5036 153.98 10.758Z" fill="white"/>
<path d="M188.3 7.55859C183.589 7.55859 179.77 11.3734 179.77 16.0803C179.77 19.692 182.019 22.7745 185.191 24.0161C185.118 23.3404 185.048 22.3085 185.221 21.5728C185.378 20.907 186.221 17.3386 186.221 17.3386C186.221 17.3386 185.964 16.8293 185.964 16.0736C185.964 14.8886 186.651 14.0031 187.507 14.0031C188.234 14.0031 188.587 14.5491 188.587 15.2048C188.587 15.9372 188.12 17.029 187.88 18.041C187.681 18.8898 188.307 19.5822 189.143 19.5822C190.66 19.5822 191.826 17.9844 191.826 15.6808C191.826 13.6403 190.36 12.2122 188.264 12.2122C185.838 12.2122 184.412 14.0298 184.412 15.9105C184.412 16.6429 184.695 17.4285 185.048 17.8545C185.118 17.9378 185.128 18.0143 185.108 18.0975C185.045 18.3672 184.898 18.9464 184.871 19.0629C184.835 19.2193 184.748 19.2526 184.585 19.1761C183.519 18.6801 182.852 17.1255 182.852 15.8739C182.852 13.1843 184.808 10.7176 188.487 10.7176C191.446 10.7176 193.745 12.8247 193.745 15.6409C193.745 18.5769 191.893 20.9403 189.32 20.9403C188.457 20.9403 187.644 20.4909 187.364 19.9617C187.364 19.9617 186.937 21.5894 186.834 21.9889C186.641 22.7279 186.121 23.6566 185.774 24.2225C186.574 24.4689 187.421 24.602 188.3 24.602C193.012 24.602 196.831 20.7872 196.831 16.0803C196.831 11.3734 193.012 7.55859 188.3 7.55859Z" fill="white"/>
</svg>
