<svg width="20" height="23" viewBox="0 0 20 23" fill="none" xmlns="http://www.w3.org/2000/svg">
<path d="M17.0336 11.6602C16.9492 11.5763 16.8485 11.5095 16.7374 11.4639C16.6262 11.4183 16.5069 11.3946 16.3862 11.3943C16.2656 11.394 16.1461 11.4171 16.0347 11.4622C15.9233 11.5072 15.8223 11.5735 15.7374 11.6569C15.6526 11.7404 15.5857 11.8395 15.5406 11.9484C15.4956 12.0573 15.4732 12.1738 15.4749 12.2912C15.4766 12.4086 15.5022 12.5244 15.5504 12.6321C15.5986 12.7397 15.6683 12.8369 15.7554 12.9181C16.5267 13.6566 17.1386 14.5376 17.5553 15.5093C17.9719 16.4811 18.1849 17.524 18.1818 18.577C18.1818 19.6589 14.9945 21.2308 10 21.2308C5.00547 21.2308 1.81822 19.658 1.81822 18.5752C1.81512 17.5294 2.02524 16.4935 2.43643 15.5273C2.84761 14.5611 3.45168 13.6839 4.21366 12.9464C4.30049 12.8648 4.36974 12.7672 4.41739 12.6592C4.46503 12.5513 4.49011 12.4352 4.49116 12.3178C4.49221 12.2003 4.46921 12.0838 4.4235 11.9751C4.37779 11.8664 4.31029 11.7676 4.22493 11.6846C4.13957 11.6015 4.03807 11.5358 3.92635 11.4914C3.81462 11.4469 3.69491 11.4245 3.57421 11.4255C3.4535 11.4265 3.33421 11.4509 3.2233 11.4973C3.11238 11.5437 3.01207 11.6111 2.92821 11.6955C1.99672 12.5971 1.25829 13.6696 0.755663 14.8508C0.253038 16.032 -0.00379283 17.2985 4.23257e-05 18.577C4.23257e-05 21.4502 5.15184 23 10 23C14.8482 23 20 21.4502 20 18.577C20.004 17.2899 19.7437 16.015 19.2342 14.8272C18.7248 13.6394 17.9766 12.5626 17.0336 11.6602Z" fill="#F3F2EE"/>
<path d="M10.0001 12.3846C11.2587 12.3846 12.489 12.0214 13.5355 11.341C14.582 10.6606 15.3977 9.6935 15.8793 8.562C16.361 7.43051 16.487 6.18544 16.2414 4.98425C15.9959 3.78306 15.3898 2.6797 14.4998 1.81369C13.6099 0.947678 12.476 0.357918 11.2416 0.118986C10.0072 -0.119945 8.72765 0.00268302 7.56485 0.471364C6.40205 0.940045 5.40819 1.73373 4.70895 2.75205C4.00971 3.77037 3.63649 4.96759 3.63649 6.19231C3.63841 7.83404 4.30948 9.40799 5.50247 10.5689C6.69546 11.7297 8.31296 12.3827 10.0001 12.3846ZM10.0001 1.76923C10.8991 1.76923 11.7779 2.02864 12.5254 2.51466C13.2729 3.00067 13.8555 3.69146 14.1995 4.49967C14.5436 5.30788 14.6336 6.19722 14.4582 7.05521C14.2828 7.9132 13.8499 8.70132 13.2142 9.3199C12.5785 9.93848 11.7686 10.3597 10.8869 10.5304C10.0051 10.7011 9.09121 10.6135 8.26064 10.2787C7.43007 9.94393 6.72017 9.37701 6.22071 8.64964C5.72125 7.92227 5.45466 7.06711 5.45466 6.19231C5.45611 5.01967 5.93546 3.89546 6.78758 3.06627C7.63971 2.23709 8.79502 1.77064 10.0001 1.76923Z" fill="#F3F2EE"/>
</svg>
