<svg width="132" height="132" viewBox="0 0 132 132" fill="none" xmlns="http://www.w3.org/2000/svg">
<path fill-rule="evenodd" clip-rule="evenodd" d="M74.3386 2.85265L82.7222 9.20469C85.0152 10.9419 87.4286 11.831 90.2883 11.9921L100.744 12.5809C107.005 12.9332 112.09 17.2519 113.52 23.4319L115.909 33.7525C116.562 36.575 117.846 38.8263 119.935 40.8102L127.57 48.0644C132.143 52.4078 133.295 59.0246 130.466 64.6891L125.742 74.1489C124.45 76.7363 124.004 79.2963 124.344 82.1747L125.587 92.6999C126.331 99.0021 123.012 104.821 117.248 107.319L107.622 111.492C104.989 112.634 103.021 114.305 101.454 116.731L95.7221 125.602C92.2901 130.914 86.0525 133.212 80.0503 131.376L70.026 128.309C67.2845 127.471 64.7163 127.471 61.9745 128.309L51.9502 131.376C45.948 133.212 39.7105 130.914 36.2785 125.602L30.5466 116.731C28.9789 114.305 27.0115 112.634 24.3789 111.492L14.7517 107.319C8.98768 104.82 5.66869 99.0015 6.41284 92.6993L7.65585 82.1742C7.99575 79.2957 7.5497 76.7357 6.25774 74.1484L1.53351 64.6885C-1.29515 59.0243 -0.142621 52.4075 4.42954 48.0638L12.0655 40.8096C14.1538 38.8258 15.4378 36.5744 16.0909 33.7519L18.4796 23.4314C19.9096 17.2516 24.9946 12.933 31.2556 12.5803L41.7114 11.9916C44.5711 11.8307 46.9845 10.9413 49.2775 9.20414L57.6611 2.85209C62.6807 -0.950789 69.3187 -0.950789 74.3386 2.85265ZM60.6518 69.6352L51.5537 60.4261C49.1955 58.0392 45.3705 58.0392 43.0127 60.4261C40.6546 62.813 40.6546 66.6843 43.0127 69.0712L56.3945 82.6159C58.7526 85.0025 62.5776 85.0028 64.9355 82.6159C73.0012 74.4515 80.9757 66.1955 89.0044 57.9938C91.3454 55.6022 91.338 51.7431 88.9782 49.3679C86.6182 46.9921 82.7946 46.9988 80.451 49.3946L60.6518 69.6352ZM65.9997 20.4761C53.5804 20.4761 42.3365 25.5717 34.1975 33.8098C26.0586 42.0483 21.0245 53.4291 21.0245 65.9998C21.0245 78.5706 26.0586 89.9517 34.1975 98.1899C42.3365 106.428 53.5804 111.524 65.9997 111.524C78.419 111.524 89.663 106.428 97.8019 98.1899C105.941 89.9517 110.975 78.5706 110.975 65.9998C110.975 53.4291 105.941 42.048 97.8019 33.8098C89.663 25.5717 78.419 20.4761 65.9997 20.4761ZM94.6908 36.9589C87.3483 29.5268 77.2043 24.9298 65.9997 24.9298C54.7951 24.9298 44.6511 29.5268 37.3086 36.9589C29.9661 44.3909 25.4245 54.6586 25.4245 65.9998C25.4245 77.3411 29.9661 87.6088 37.3086 95.0408C44.6511 102.473 54.7951 107.07 65.9997 107.07C77.2043 107.07 87.3483 102.473 94.6908 95.0411C102.033 87.6091 106.575 77.3414 106.575 66.0001C106.575 54.6586 102.033 44.3909 94.6908 36.9589Z" fill="#DFDACA"/>
</svg>
